<?xml version="1.0" encoding="UTF-8"?>
<svg id="Layer_1" data-name="Layer 1" xmlns="http://www.w3.org/2000/svg" viewBox="0 0 237.52 240.93">
  <defs>
    <style>
      .cls-1 {
        stroke: #ffffff;
      }

      .cls-1, .cls-2 {
        fill: none;
        stroke-linecap: round;
        stroke-linejoin: round;
        stroke-width: 4px;
      }

      .cls-2 {
        stroke: #ffffff;
      }
    </style>
  </defs>
  <g>
    <polyline class="cls-1" points="118.48 137.82 125.45 144.88 136.73 127.45"/>
    <polyline class="cls-1" points="118.48 175.61 125.45 182.67 136.73 165.24"/>
    <polyline class="cls-2" points="31.17 114.47 59.76 114.47 59.76 165.35 31.17 165.35"/>
    <path class="cls-2" d="M59.76,119.93s8.51,.27,12.9-6.59,20.73-10.71,23.2-9.75c0,0,17.57-4.12,26.63-19.49,0,0,11.26-4.67,8.24,9.2,0,0-3.43,10.57-13.18,15.65,0,0-3.29,.69-3.16,4.12s-5.49,21.36-20.18,25.99"/>
    <path class="cls-2" d="M59.76,158.36s7.69-1.92,10.98,0c1.7,.99,3.41,1.97,5.15,2.89,2.6,1.4,4.53,2.13,7.41,2.37,2.56,.21,5.11,.44,7.67,.66,3.97,.35,7.93,.71,11.9,1.07"/>
    <path class="cls-2" d="M102.87,101.04v-27.25c0-4.17,3.38-7.56,7.56-7.56h15.31"/>
    <path class="cls-2" d="M184.03,66.23h16.02c4.17,0,7.55,3.39,7.55,7.56v119.33c0,4.17-3.38,7.55-7.55,7.55H110.43c-4.18,0-7.56-3.38-7.56-7.55v-58.97"/>
    <path class="cls-2" d="M183.58,61.99c-1.31-3.5-4.85-6.06-8.78-5.97-1.32,.03-2.63,.02-3.95,.01-.92,0-1.75-.57-2.1-1.43-1.89-4.56-6.02-7.33-10.99-7.35-1.95,0-3.9-.02-5.85,0-4.46,.06-7.8,2.09-10.09,5.85-.29,.48-.53,1-.76,1.54-.36,.84-1.18,1.39-2.09,1.38h-4.47c-4.72,.02-8.87,3.9-8.89,8.71,0,4.55,4.03,8.86,8.65,8.86,13.79,0,27.58,.1,41.37,0,4.1-.03,7.75-3.31,8.39-7.32,.24-1.5,.06-2.96-.43-4.29h0Z"/>
    <circle class="cls-2" cx="45.47" cy="151.83" r="6.54"/>
    <polyline class="cls-2" points="114.53 93.61 114.53 85.3 121.76 85.3"/>
    <polyline class="cls-2" points="130.35 85.3 140.67 85.3 140.67 111.44 114.63 111.44"/>
    <rect class="cls-2" x="114.54" y="123.09" width="26.14" height="26.14"/>
    <rect class="cls-2" x="114.54" y="160.89" width="26.14" height="26.14"/>
    <g>
      <line class="cls-1" x1="152.83" y1="92.96" x2="197.31" y2="92.96"/>
      <line class="cls-1" x1="152.83" y1="103.78" x2="177.54" y2="103.78"/>
    </g>
    <g>
      <line class="cls-1" x1="152.83" y1="130.75" x2="197.31" y2="130.75"/>
      <line class="cls-1" x1="152.83" y1="141.57" x2="177.54" y2="141.57"/>
    </g>
    <g>
      <line class="cls-1" x1="152.83" y1="170.21" x2="197.31" y2="170.21"/>
      <line class="cls-1" x1="152.83" y1="181.04" x2="177.54" y2="181.04"/>
    </g>
  </g>
  <path class="cls-2" d="M38.39,103.78c4.57-45.81,43.23-81.58,90.24-81.58,27.96,0,52.96,12.65,69.6,32.54"/>
  <path class="cls-2" d="M93.85,196.17c-12.4-5.11-23.78-13.01-33.1-23.5"/>
</svg>